<?xml version="1.0" encoding="UTF-8" standalone="no"?>
<svg
   xmlns:dc="http://purl.org/dc/elements/1.1/"
   xmlns:cc="http://creativecommons.org/ns#"
   xmlns:rdf="http://www.w3.org/1999/02/22-rdf-syntax-ns#"
   xmlns:svg="http://www.w3.org/2000/svg"
   xmlns="http://www.w3.org/2000/svg"
   xmlns:sodipodi="http://sodipodi.sourceforge.net/DTD/sodipodi-0.dtd"
   xmlns:inkscape="http://www.inkscape.org/namespaces/inkscape"
   inkscape:version="1.0 (4035a4fb49, 2020-05-01)"
   sodipodi:docname="undraw_Devices_re_dxae.svg"
   version="1.1"
   viewBox="0 0 920.10876 411.95215"
   height="411.95215"
   width="920.10876"
   data-name="Layer 1"
   id="b849a2f0-74e0-42be-b224-12e88fa50e48">
  <metadata
     id="metadata61">
    <rdf:RDF>
      <cc:Work
         rdf:about="">
        <dc:format>image/svg+xml</dc:format>
        <dc:type
           rdf:resource="http://purl.org/dc/dcmitype/StillImage" />
      </cc:Work>
    </rdf:RDF>
  </metadata>
  <defs
     id="defs59" />
  <sodipodi:namedview
     inkscape:current-layer="b849a2f0-74e0-42be-b224-12e88fa50e48"
     inkscape:window-maximized="1"
     inkscape:window-y="-8"
     inkscape:window-x="-8"
     inkscape:cy="210.32236"
     inkscape:cx="3.858468"
     inkscape:zoom="0.39462653"
     showgrid="false"
     id="namedview57"
     inkscape:window-height="745"
     inkscape:window-width="1366"
     inkscape:pageshadow="2"
     inkscape:pageopacity="0"
     guidetolerance="10"
     gridtolerance="10"
     objecttolerance="10"
     borderopacity="1"
     bordercolor="#666666"
     pagecolor="#ffffff" />
  <path
     id="path2"
     fill="#e6e6e6"
     transform="translate(-139.94562 -244.02393)"
     d="M576.47229,654.02393H772.06284c7.72143,0,7.73422-12,0-12H576.47229c-7.72143,0-7.73422,12,0,12Z" />
  <path
     id="path4"
     fill="#000000"
     transform="translate(-139.94562 -244.02393)"
     d="M523.66535,393.25494H328.73176a7.77658,7.77658,0,0,0-7.76706,7.76724v38.72531C330.68844,439.97637,337,448,338.5294,457.74056v35.10668h.73832a.44433.44433,0,0,1,.44307.443v18.6806a.44433.44433,0,0,1-.44307.443h-.73832V625.32342c0,2.48077-.02488,7.00673-.02488,7.00673H523.66535a7.77669,7.77669,0,0,0,7.76723-7.76719V401.02218A7.77674,7.77674,0,0,0,523.66535,393.25494Z" />
  <path
     id="path6"
     fill="#000000"
     transform="translate(-139.94562 -244.02393)"
     d="M885.84519,265.83414V477.73451H544.91447V384.43929a15.9929,15.9929,0,0,0-15.97754-15.97744H464.998V265.83414Z" />
  <path
     id="path8"
     fill="#3f3d56"
     transform="translate(-139.94562 -244.02393)"
     d="M906.895,507.60731H545.29517v-1.47665H905.4183V256.57552a11.08751,11.08751,0,0,0-11.07494-11.07494H452.0844a11.08751,11.08751,0,0,0-11.07493,11.07494V367.50509h-1.47666V256.57552a12.56574,12.56574,0,0,1,12.55159-12.55159h442.259A12.56573,12.56573,0,0,1,906.895,256.57552Z" />
  <path
     id="path10"
     fill="#3f3d56"
     transform="translate(-139.94562 -244.02393)"
     d="M872.63242,552.64537H545.29517v-1.47666H872.63242A32.82279,32.82279,0,0,0,905.4183,518.383V507.60731H545.29517v-1.47665H906.895V518.383A34.30125,34.30125,0,0,1,872.63242,552.64537Z" />
  <path
     id="path12"
     fill="#3f3d56"
     transform="translate(-139.94562 -244.02393)"
     d="M775.48478,625.00174c-18.24788-17.52212-30.252-40.38444-34.11085-72.35637H606.8847c-1.36825,29.91173-13.296,52.34479-34.8127,72.2775l-2.27343.07914c22.19931-20.11831,34.42669-42.71583,35.641-73.12453l.0283-.70877h137.2192l.07607.65289c3.78995,32.51355,16.04535,55.52328,34.74289,73.06176Z" />
  <path
     id="path14"
     fill="#3f3d56"
     transform="translate(-139.94562 -244.02393)"
     d="M528.58,655.54815H321.40678v-1.47666H528.58a15.995,15.995,0,0,0,15.97681-15.97682V384.77831A15.99478,15.99478,0,0,0,528.58,368.8015H321.40678a15.99476,15.99476,0,0,0-15.97672,15.97681v54.66734H303.9534V384.77831a17.47323,17.47323,0,0,1,17.45338-17.45347H528.58a17.47324,17.47324,0,0,1,17.45347,17.45347V638.09467A17.47325,17.47325,0,0,1,528.58,655.54815Z" />
  <path
     id="path16"
     fill="#3f3d56"
     transform="translate(-139.94562 -244.02393)"
     d="M424.99336,386.00664A5.00664,5.00664,0,1,1,430,380.99986,5.01247,5.01247,0,0,1,424.99336,386.00664Zm0-8.856a3.84938,3.84938,0,1,0,3.84938,3.84924A3.85374,3.85374,0,0,0,424.99336,377.15062Z" />
  <path
     id="path18"
     fill="#3f3d56"
     transform="translate(-139.94562 -244.02393)"
     d="M424.99336,649.88845a6.38845,6.38845,0,1,1,6.38846-6.38863A6.39589,6.39589,0,0,1,424.99336,649.88845Zm0-11.30025a4.9118,4.9118,0,1,0,4.9118,4.91162A4.91736,4.91736,0,0,0,424.99336,638.5882Z" />
  <path
     id="path20"
     fill="#3f3d56"
     transform="translate(-139.94562 -244.02393)"
     d="M319.32627,655.97607h-68.58A19.49526,19.49526,0,0,1,231.273,636.50265V458.91871a19.49517,19.49517,0,0,1,19.47315-19.47306h68.58022a19.49512,19.49512,0,0,1,19.47315,19.47306v31.7795a1.923,1.923,0,0,1,1.18167,1.77228l-.00009,20.67825a1.92291,1.92291,0,0,1-1.18158,1.77228V636.503A19.49531,19.49531,0,0,1,319.32627,655.97607ZM250.74614,440.9223a18.017,18.017,0,0,0-17.9965,17.99641V636.50265a18.017,18.017,0,0,0,17.99659,17.99677h68.58A18.01708,18.01708,0,0,0,337.32285,636.503V513.59181h.73833a.44357.44357,0,0,0,.44325-.44307l.00009-20.67825a.444.444,0,0,0-.44334-.44343h-.73833V458.91871a18.017,18.017,0,0,0-17.99649-17.99641Z" />
  <path
     id="path22"
     fill="#000000"
     transform="translate(-139.94562 -244.02393)"
     d="M320.08225,445.05807h-8.952a6.64707,6.64707,0,0,1-6.15429,9.1575H265.68732a6.64709,6.64709,0,0,1-6.15429-9.15752h-8.36116a13.991,13.991,0,0,0-13.991,13.99095V636.37252a13.991,13.991,0,0,0,13.991,13.991h68.9104a13.991,13.991,0,0,0,13.991-13.991h0V459.049A13.991,13.991,0,0,0,320.08225,445.05807Z" />
  <path
     transform="translate(-139.94562 -244.02393)"
     id="path24"
     fill="#3f3d56"
     d="M1059.17526,655.6871H140.82474a.87912.87912,0,1,1,0-1.75823h918.35052a.87912.87912,0,1,1,0,1.75823Z" />
  <path
     id="path26"
     fill="#3f3d56"
     transform="translate(-139.94562 -244.02393)"
     d="M775.94091,655.27308H571.42365a15.50491,15.50491,0,1,1,0-31.00981H775.94091a15.50491,15.50491,0,0,1,0,31.00981ZM571.42365,625.73992a14.02825,14.02825,0,0,0,0,28.0565H775.94091a14.02825,14.02825,0,0,0,0-28.0565Z" />
</svg>
